<?xml version="1.0" standalone="no"?>
<!DOCTYPE svg PUBLIC "-//W3C//DTD SVG 20010904//EN"
 "http://www.w3.org/TR/2001/REC-SVG-20010904/DTD/svg10.dtd">
<svg version="1.0" xmlns="http://www.w3.org/2000/svg"
 width="245.000000pt" height="300.000000pt" viewBox="0 0 245.000000 300.000000"
 preserveAspectRatio="xMidYMid meet">
<metadata>
Created by potrace 1.10, written by Peter Selinger 2001-2011
</metadata>
<g transform="translate(0.000000,300.000000) scale(0.100000,-0.100000)"
fill="#000000" stroke="none">
<path d="M1104 2870 c-140 -36 -258 -111 -394 -249 -120 -123 -238 -288 -329
-461 -322 -618 -351 -1137 -85 -1540 59 -90 176 -215 262 -281 73 -55 228
-137 319 -168 151 -51 376 -66 546 -36 437 77 802 431 890 865 24 117 30 245
18 355 -52 444 -275 932 -572 1248 -138 148 -265 229 -417 268 -93 23 -146 23
-238 -1z m273 -41 c167 -54 333 -190 500 -410 165 -218 328 -578 392 -865 101
-457 -1 -827 -309 -1117 -138 -130 -307 -219 -497 -264 -110 -25 -367 -25
-477 1 -207 48 -371 140 -527 296 -384 382 -418 921 -100 1585 250 522 595
823 906 794 41 -4 92 -13 112 -20z"/>
<path d="M1158 2829 c-320 -46 -687 -486 -890 -1068 -68 -196 -98 -356 -98
-526 0 -487 323 -906 798 -1037 65 -18 105 -21 257 -22 154 0 191 3 257 21
190 53 355 150 489 286 130 133 219 284 276 472 25 84 27 103 27 275 0 153 -4
202 -21 281 -122 543 -450 1069 -783 1257 -90 51 -214 75 -312 61z m197 -44
c87 -22 204 -100 318 -212 293 -290 545 -836 575 -1247 24 -316 -68 -580 -277
-798 -147 -154 -296 -243 -491 -296 -83 -22 -115 -25 -255 -25 -140 0 -172 3
-255 25 -190 51 -343 141 -481 285 -191 198 -290 442 -290 713 0 129 10 210
46 351 95 380 304 769 531 991 208 203 373 264 579 213z"/>
<path d="M1234 2542 c-18 -12 -23 -39 -11 -55 17 -20 140 -62 160 -54 22 8 33
36 21 54 -9 15 -124 63 -148 63 -6 0 -16 -4 -22 -8z m100 -51 c27 -10 44 -21
38 -25 -13 -8 -122 32 -122 45 0 11 9 9 84 -20z"/>
<path d="M1490 2401 c-5 -11 -10 -22 -10 -25 0 -3 49 -54 108 -113 121 -120
185 -214 252 -372 23 -53 45 -103 49 -111 11 -21 45 -24 61 -5 19 23 2 83 -54
201 -59 124 -127 224 -211 313 -115 122 -172 154 -195 112z m121 -78 c121
-113 230 -273 289 -425 33 -85 35 -98 19 -98 -6 0 -18 19 -27 43 -70 178 -176
342 -297 455 -41 39 -75 73 -75 76 0 19 37 -1 91 -51z"/>
</g>
</svg>
