<?xml version="1.0" standalone="no"?>
<!DOCTYPE svg PUBLIC "-//W3C//DTD SVG 20010904//EN"
 "http://www.w3.org/TR/2001/REC-SVG-20010904/DTD/svg10.dtd">
<svg version="1.0" xmlns="http://www.w3.org/2000/svg"
 width="271.000000pt" height="300.000000pt" viewBox="0 0 271.000000 300.000000"
 preserveAspectRatio="xMidYMid meet">
<metadata>
Created by potrace 1.10, written by Peter Selinger 2001-2011
</metadata>
<g transform="translate(0.000000,300.000000) scale(0.100000,-0.100000)"
fill="#000000" stroke="none">
<path d="M1866 2844 c-4 -14 -30 -89 -58 -166 -48 -130 -54 -141 -93 -168
-119 -82 -196 -252 -181 -400 l6 -55 -14 36 c-8 20 -25 54 -39 75 -20 31 -27
57 -33 129 -3 50 -8 97 -10 105 -1 8 -3 27 -3 43 -1 30 -30 39 -32 10 0 -10
-2 -26 -4 -37 -2 -10 -7 -58 -10 -105 -6 -79 -10 -89 -39 -121 -82 -88 -117
-171 -120 -285 -2 -86 14 -188 39 -235 19 -37 69 -64 102 -55 25 6 25 5 -8
-33 -107 -126 -164 -190 -166 -188 -1 1 7 20 18 43 51 104 47 268 -9 363 -42
70 -41 68 -43 286 -1 112 -4 202 -7 200 -4 -4 -72 -360 -72 -377 0 -4 -20 -33
-45 -64 -84 -108 -116 -242 -89 -372 28 -139 83 -201 149 -167 44 23 42 18
-21 -48 -33 -35 -80 -87 -106 -117 l-46 -54 20 59 c38 114 12 299 -55 387 -24
31 -25 40 -30 225 -3 107 -8 196 -11 199 -3 4 -6 -5 -6 -18 0 -13 -12 -98 -27
-189 l-27 -165 -54 -64 c-65 -76 -77 -104 -90 -199 -15 -102 8 -245 51 -329
18 -33 58 -58 81 -50 25 10 19 -1 -28 -51 -24 -26 -64 -70 -87 -99 -45 -52
-63 -64 -35 -21 26 40 49 157 43 224 -7 71 -39 163 -71 202 -13 15 -23 34 -23
42 -1 41 -16 325 -17 327 -1 2 -18 -70 -37 -159 -34 -162 -34 -162 -83 -218
-73 -83 -96 -148 -101 -289 -6 -157 62 -279 149 -269 31 3 22 -9 -166 -219
l-199 -223 21 -30 c12 -16 22 -30 23 -30 2 0 92 101 202 224 l200 224 6 -36
c9 -50 55 -86 130 -102 114 -24 275 26 410 128 101 77 204 122 282 122 17 0
27 5 27 15 0 13 -18 15 -117 13 -107 -2 -126 0 -203 26 -68 23 -103 28 -175
29 -85 0 -125 -9 -220 -48 -11 -5 5 18 36 51 31 32 72 77 92 99 27 30 35 34
31 19 -8 -31 20 -79 53 -92 40 -16 164 -31 209 -25 125 15 240 67 293 133 42
53 87 75 207 100 54 11 124 27 154 34 52 14 47 14 -95 8 -242 -11 -273 -9
-335 20 l-55 26 48 -3 c116 -7 282 56 367 140 66 64 117 88 228 106 59 9 82
17 82 27 0 15 -26 15 -215 -3 -55 -5 -66 -3 -130 29 l-70 36 45 -6 c50 -6 142
12 236 47 43 16 74 38 117 81 l57 59 188 49 c215 57 227 62 152 55 -30 -3 -98
-7 -150 -10 -52 -3 -123 -8 -157 -11 -58 -4 -66 -2 -104 26 -23 16 -51 30 -62
30 -32 0 -16 8 30 15 139 20 279 104 333 198 28 49 36 55 159 117 170 85 166
103 -9 53 -104 -29 -130 -33 -155 -24 -91 32 -126 33 -245 6 -14 -3 -1 6 29
20 67 31 195 159 236 235 23 44 29 68 30 126 l2 71 76 101 c46 60 73 104 66
107 -12 8 -28 -5 -124 -96 -56 -53 -80 -69 -120 -78 -184 -44 -339 -210 -353
-377 -3 -48 -10 -67 -34 -95 l-29 -34 16 32 c25 52 48 182 42 239 -3 29 -15
74 -27 100 -23 53 -23 43 11 307 11 86 8 125 -5 71z m483 -232 c-29 -35 -32
-45 -33 -108 -1 -94 -30 -149 -125 -245 -83 -83 -167 -132 -230 -133 -38 -1
-52 -16 -911 -976 -480 -536 -874 -974 -876 -972 -2 1 -4 5 -5 8 0 3 392 446
873 985 l873 978 0 54 c0 98 84 235 190 306 44 31 144 71 175 71 11 0 34 16
52 35 44 47 57 45 17 -3z m-529 -39 c-9 -54 -8 -66 12 -109 19 -40 23 -66 23
-139 -1 -106 -18 -166 -77 -257 -76 -119 -109 -139 -161 -98 -43 34 -61 98
-54 193 10 145 61 242 168 323 47 36 57 51 73 99 10 31 19 55 22 53 2 -2 -1
-31 -6 -65z m-358 -424 c34 -44 47 -78 57 -153 17 -122 -25 -264 -96 -326 -88
-77 -151 1 -159 199 -2 65 1 98 17 145 20 59 67 133 108 170 14 13 23 38 28
80 l8 61 5 -71 c5 -55 12 -78 32 -105z m812 -64 c43 -17 53 -16 144 11 9 3
-13 -11 -49 -30 -49 -26 -70 -44 -83 -70 -52 -110 -230 -206 -383 -206 -146 0
-175 83 -63 183 124 112 309 159 434 112z m-329 -9 c-46 -26 -56 -25 -30 4 10
11 30 20 44 20 24 0 23 -2 -14 -24z m-359 -117 c9 -10 32 -23 50 -29 l35 -12
-63 -70 c-35 -39 -73 -82 -85 -97 l-23 -26 23 50 c19 42 22 67 22 162 0 104 1
110 13 76 7 -20 19 -45 28 -54z m-444 -21 c0 -68 3 -78 42 -143 l41 -69 0
-106 c0 -115 -12 -158 -65 -235 -61 -89 -121 -80 -160 22 -48 126 -22 307 59
410 52 65 58 79 66 146 4 32 10 56 12 53 3 -2 5 -37 5 -78z m601 -77 c-7 -29
15 -61 55 -78 l37 -16 -72 -13 c-40 -6 -102 -26 -139 -43 l-65 -30 85 92 c47
50 86 95 86 100 0 4 4 7 9 7 5 0 7 -9 4 -19z m176 -131 c19 -5 52 -23 72 -40
40 -31 37 -31 168 -15 53 7 23 -10 -44 -25 -53 -11 -66 -19 -120 -75 -54 -57
-68 -65 -145 -90 -154 -50 -289 -43 -357 18 -32 28 -29 51 14 98 84 93 301
161 412 129z m-1071 -109 c1 -60 6 -76 32 -113 39 -56 60 -134 60 -229 0 -90
-18 -155 -62 -228 -39 -63 -74 -87 -112 -77 -73 18 -118 294 -70 425 9 24 41
72 70 106 36 43 55 75 59 101 9 59 15 84 19 84 1 0 4 -31 4 -69z m602 -101 c0
-26 34 -56 84 -74 l41 -14 -55 -1 c-70 -1 -147 -22 -206 -55 l-46 -25 64 70
c35 39 71 82 81 95 23 29 37 31 37 4z m221 -149 c34 -18 75 -31 97 -32 33 0
35 -1 17 -12 -11 -7 -47 -38 -80 -69 -86 -80 -185 -121 -327 -134 -85 -8 -129
0 -162 31 -58 54 -20 125 104 194 119 66 252 74 351 22z m-1117 -85 c4 -59 11
-85 25 -100 11 -12 30 -44 43 -71 32 -71 32 -224 0 -306 -29 -73 -76 -137
-109 -150 -38 -14 -83 15 -113 76 -22 44 -25 63 -25 155 1 141 20 200 91 279
49 53 55 65 66 130 7 39 13 69 14 68 1 -1 5 -38 8 -81z m625 -134 c7 -13 31
-32 54 -42 l42 -20 -36 6 c-45 7 -152 -12 -203 -37 -22 -10 -42 -19 -44 -19
-2 0 34 42 80 93 78 86 83 90 89 67 3 -14 11 -35 18 -48z m201 -115 c45 -22
65 -26 110 -22 53 5 54 4 20 -7 -19 -7 -61 -38 -93 -70 -66 -66 -129 -102
-218 -122 -67 -16 -198 -15 -240 2 -124 49 -40 183 149 238 76 22 205 12 272
-19z m-285 -317 c33 -12 83 -25 110 -29 l50 -7 -45 -23 c-24 -13 -73 -46 -109
-72 -113 -86 -239 -130 -352 -124 -86 4 -137 37 -143 92 -6 53 29 95 122 142
103 52 256 61 367 21z"/>
</g>
</svg>
