<?xml version="1.0" standalone="no"?>
<!DOCTYPE svg PUBLIC "-//W3C//DTD SVG 20010904//EN"
 "http://www.w3.org/TR/2001/REC-SVG-20010904/DTD/svg10.dtd">
<svg version="1.0" xmlns="http://www.w3.org/2000/svg"
 width="300.000000pt" height="150.000000pt" viewBox="0 0 300.000000 150.000000"
 preserveAspectRatio="xMidYMid meet">
<metadata>
Created by potrace 1.10, written by Peter Selinger 2001-2011
</metadata>
<g transform="translate(0.000000,150.000000) scale(0.100000,-0.100000)"
fill="#000000" stroke="none">
<path d="M1247 1337 c-9 -7 -83 -231 -176 -532 -88 -286 -169 -547 -179 -580
-14 -41 -17 -64 -10 -72 8 -10 180 -13 798 -13 l788 0 89 262 c197 575 306
915 300 931 -6 16 -63 17 -800 17 -612 0 -797 -3 -810 -13z m986 -24 c-35 -2
-91 -2 -125 0 -35 2 -7 3 62 3 69 0 97 -1 63 -3z m597 -1 c0 -7 -275 -832
-350 -1049 l-32 -93 -41 0 c-32 0 -38 3 -29 12 7 7 12 18 12 25 0 7 -81 82
-180 168 -169 147 -214 190 -177 169 8 -5 99 -82 202 -172 149 -130 189 -160
203 -153 11 6 66 157 167 458 200 600 185 549 170 570 -12 17 -15 17 -52 -2
-57 -29 -61 -29 -25 0 36 30 40 49 15 64 -14 8 -1 10 50 11 37 0 67 -4 67 -8z
m-1520 -11 c0 -6 -5 -13 -10 -16 -17 -10 6 -42 124 -175 61 -69 113 -127 116
-130 3 -3 36 -41 75 -85 151 -173 175 -195 199 -184 20 11 20 10 4 -6 -9 -10
-23 -15 -31 -12 -8 3 -121 125 -252 272 -130 146 -243 269 -252 272 -8 3 -21
-1 -28 -8 -8 -8 -45 -112 -82 -232 -37 -121 -69 -214 -71 -209 -3 9 123 432
149 499 6 16 17 23 34 23 14 0 25 -4 25 -9z m1330 -60 c-47 -26 -256 -151
-465 -277 l-380 -229 -140 159 c-77 87 -186 209 -243 272 l-102 114 692 3
c381 1 700 3 708 5 8 1 -24 -20 -70 -47z m-37 -488 c-90 -269 -165 -494 -168
-501 -3 -8 -79 53 -196 155 -105 93 -198 172 -207 177 -11 6 -21 3 -34 -14
-18 -22 -18 -24 -1 -43 13 -14 294 -259 372 -324 2 -1 -308 -3 -690 -2 -540 0
-690 3 -676 12 10 7 147 102 305 212 244 171 287 204 287 225 0 52 -36 35
-276 -131 -129 -89 -260 -182 -292 -206 -34 -26 -54 -36 -48 -25 5 10 73 223
151 472 77 250 142 455 143 456 1 1 105 -115 232 -257 126 -143 241 -271 256
-285 l26 -25 489 295 c269 162 489 295 489 295 0 1 -73 -218 -162 -486z m47
452 c-7 -8 -17 -15 -23 -15 -6 0 -2 7 9 15 25 19 30 19 14 0z m-50 -30 c-7 -8
-17 -15 -23 -15 -6 0 -2 7 9 15 25 19 30 19 14 0z m-50 -35 c-24 -15 -36 -11
-14 4 10 8 21 12 24 10 2 -3 -2 -9 -10 -14z m-50 -30 c-24 -15 -36 -11 -14 4
10 8 21 12 24 10 2 -3 -2 -9 -10 -14z m-50 -30 c-24 -15 -36 -11 -14 4 10 8
21 12 24 10 2 -3 -2 -9 -10 -14z m-50 -30 c-24 -15 -36 -11 -14 4 10 8 21 12
24 10 2 -3 -2 -9 -10 -14z m-50 -30 c-24 -15 -36 -11 -14 4 10 8 21 12 24 10
2 -3 -2 -9 -10 -14z m-50 -30 c-24 -15 -36 -11 -14 4 10 8 21 12 24 10 2 -3
-2 -9 -10 -14z m-50 -30 c-24 -15 -36 -11 -14 4 10 8 21 12 24 10 2 -3 -2 -9
-10 -14z m-50 -30 c-24 -15 -36 -11 -14 4 10 8 21 12 24 10 2 -3 -2 -9 -10
-14z m-50 -30 c-24 -15 -36 -11 -14 4 10 8 21 12 24 10 2 -3 -2 -9 -10 -14z
m-50 -30 c-24 -15 -36 -11 -14 4 10 8 21 12 24 10 2 -3 -2 -9 -10 -14z m-50
-30 c-24 -15 -36 -11 -14 4 10 8 21 12 24 10 2 -3 -2 -9 -10 -14z m-50 -30
c-8 -5 -19 -10 -25 -10 -5 0 -3 5 5 10 8 5 20 10 25 10 6 0 3 -5 -5 -10z m-50
-30 c-8 -5 -19 -10 -25 -10 -5 0 -3 5 5 10 8 5 20 10 25 10 6 0 3 -5 -5 -10z
m-887 -140 c-20 -68 -39 -118 -41 -112 -4 13 67 246 74 240 2 -3 -13 -60 -33
-128z m807 95 c-7 -8 -17 -15 -23 -15 -6 0 -2 7 9 15 25 19 30 19 14 0z m-311
-99 c-5 -5 -273 -193 -445 -311 -141 -98 -152 -109 -136 -136 11 -18 9 -19
-28 -19 -25 0 -40 5 -40 13 1 23 79 252 79 231 1 -12 -6 -38 -14 -57 -27 -65
-17 -105 23 -93 9 4 136 89 282 190 146 102 269 185 274 185 5 1 7 -1 5 -3z
m-557 -188 c-6 -6 -7 0 -4 19 5 21 7 23 10 9 2 -10 0 -22 -6 -28z"/>
<path d="M444 1176 c-3 -8 -4 -23 -2 -33 3 -17 23 -18 293 -21 260 -2 291 -1
302 14 9 12 9 22 2 35 -9 18 -27 19 -300 19 -243 0 -291 -2 -295 -14z"/>
<path d="M303 843 c-17 -6 -16 -38 1 -52 9 -8 95 -11 291 -9 243 3 279 5 288
19 6 9 7 24 4 33 -6 14 -36 16 -289 15 -156 0 -289 -3 -295 -6z m415 -30 c-71
-2 -185 -2 -255 0 -71 1 -13 3 127 3 140 0 198 -2 128 -3z"/>
<path d="M147 443 c-10 -10 -8 -41 3 -48 16 -10 573 -6 583 4 5 5 7 17 5 27
-3 18 -20 19 -294 22 -160 1 -293 -1 -297 -5z"/>
</g>
</svg>
