<?xml version="1.0" standalone="no"?>
<!DOCTYPE svg PUBLIC "-//W3C//DTD SVG 20010904//EN"
 "http://www.w3.org/TR/2001/REC-SVG-20010904/DTD/svg10.dtd">
<svg version="1.0" xmlns="http://www.w3.org/2000/svg"
 width="164.000000pt" height="300.000000pt" viewBox="0 0 164.000000 300.000000"
 preserveAspectRatio="xMidYMid meet">
<metadata>
Created by potrace 1.10, written by Peter Selinger 2001-2011
</metadata>
<g transform="translate(0.000000,300.000000) scale(0.100000,-0.100000)"
fill="#000000" stroke="none">
<path d="M394 2908 c-5 -7 -7 -44 -6 -83 l3 -70 -156 -296 -155 -297 0 -913
c0 -502 4 -917 8 -921 12 -12 801 -248 828 -248 17 0 470 171 617 233 l37 16
0 918 -1 918 -149 183 -150 183 0 62 c0 34 -4 68 -9 75 -8 14 -800 251 -838
252 -12 0 -25 -6 -29 -12z m122 -44 c46 -14 91 -27 101 -29 10 -2 86 -25 168
-50 83 -25 159 -47 170 -50 11 -2 67 -19 125 -36 58 -17 116 -34 130 -38 23
-7 25 -13 30 -74 l5 -67 102 -127 c55 -71 109 -137 120 -148 10 -11 30 -37 46
-57 l27 -37 -2 -903 -3 -903 -300 -117 c-165 -64 -309 -117 -320 -117 -11 0
-195 53 -410 118 l-390 118 -3 908 -2 907 150 288 150 287 0 76 c0 50 4 77 11
77 6 0 49 -11 95 -26z"/>
<path d="M444 2847 c-3 -8 -4 -32 -2 -53 4 -45 13 -51 143 -88 50 -15 104 -31
120 -36 17 -5 131 -39 254 -75 245 -71 251 -72 251 -5 0 47 -18 63 -95 85 -33
9 -179 52 -325 95 -311 92 -338 98 -346 77z m664 -203 c78 -23 82 -26 82 -53
l0 -29 -252 74 c-139 40 -304 88 -365 106 -112 33 -113 33 -113 64 l0 30 283
-84 c155 -46 319 -95 365 -108z"/>
<path d="M428 2713 c-23 -27 -278 -518 -278 -535 0 -25 37 -42 170 -80 69 -20
217 -63 330 -96 245 -71 252 -73 266 -64 15 9 274 527 274 547 0 8 -10 21 -22
29 -19 12 -230 77 -343 106 -16 5 -106 31 -200 59 -93 28 -172 51 -176 51 -3
0 -13 -8 -21 -17z m379 -118 c196 -58 358 -106 359 -108 6 -6 -260 -522 -270
-521 -6 1 -171 48 -368 105 l-356 104 89 170 c50 93 111 212 137 263 25 50 48
92 49 92 1 0 163 -47 360 -105z"/>
<path d="M1206 2448 c-34 -48 -22 -70 73 -127 100 -61 116 -26 35 77 -61 76
-83 86 -108 50z m47 -11 c2 -7 28 -40 56 -74 l52 -62 -65 44 c-35 23 -69 44
-76 47 -9 3 -9 10 1 31 13 29 24 34 32 14z"/>
<path d="M1158 2343 c-9 -10 -55 -96 -102 -191 -69 -138 -85 -177 -75 -188 6
-8 18 -14 27 -14 29 0 450 171 466 189 16 17 15 20 -14 45 -18 14 -62 44 -98
67 -37 22 -92 56 -122 75 -64 40 -62 39 -82 17z m280 -173 c20 -11 30 -20 22
-20 -11 0 -379 -142 -455 -176 -6 -2 30 78 80 178 l90 183 113 -73 c62 -40
129 -81 150 -92z"/>
<path d="M137 2112 c-16 -17 -17 -82 -17 -874 l0 -855 22 -20 c15 -13 154 -59
382 -127 328 -99 360 -107 374 -92 15 14 17 92 20 724 1 389 -1 781 -5 872 -8
162 -8 164 -33 177 -20 10 -612 186 -700 208 -18 4 -31 1 -43 -13z m290 -91
c148 -43 312 -91 366 -106 l97 -28 0 -864 c0 -819 -1 -865 -17 -858 -10 3 -94
29 -188 57 -93 27 -250 74 -348 104 -99 30 -181 54 -183 54 -2 0 -4 387 -4
860 0 473 2 860 5 860 2 0 125 -35 272 -79z"/>
<path d="M1217 2011 c-137 -55 -257 -107 -268 -117 -19 -17 -19 -39 -19 -866
0 -832 0 -848 20 -868 15 -15 25 -18 42 -11 343 132 497 196 513 212 20 19 20
33 20 857 0 460 -3 849 -8 865 -5 19 -14 27 -30 27 -12 -1 -134 -45 -270 -99z
m283 -775 c0 -674 -3 -855 -12 -859 -7 -3 -105 -41 -218 -85 -113 -44 -229
-89 -257 -101 l-53 -21 0 853 0 853 263 106 c144 58 265 106 270 107 4 0 7
-383 7 -853z"/>
</g>
</svg>
