 <svg version="1.0" xmlns="http://www.w3.org/2000/svg"  width="300.000000pt" height="214.000000pt" viewBox="0 0 300.000000 214.000000"  preserveAspectRatio="xMidYMid meet">  <g transform="translate(0.000000,214.000000) scale(0.100000,-0.100000)" fill="#000000" stroke="none"> <path d="M203 1991 c-43 -19 -69 -214 -60 -461 9 -237 51 -411 144 -595 147 -289 321 -441 563 -490 179 -36 376 10 528 125 l52 40 20 -39 c34 -68 70 -211 77 -305 6 -98 19 -126 58 -126 32 0 43 17 59 97 23 106 56 180 131 290 22 33 24 34 34 15 17 -32 126 -109 189 -133 70 -27 189 -28 266 -3 140 45 295 163 391 298 108 152 184 361 201 554 6 64 5 74 -12 87 -48 37 -287 85 -423 85 -233 0 -475 -88 -610 -220 -141 -138 -180 -356 -97 -532 l17 -36 -47 -64 c-26 -34 -54 -80 -64 -100 l-17 -37 -17 57 c-10 31 -33 86 -51 122 l-33 65 20 25 c46 57 99 187 114 280 11 71 6 200 -11 265 -29 113 -90 220 -179 313 -257 269 -618 415 -1056 428 -95 2 -174 0 -187 -5z m352 -36 c17 -2 55 -8 85 -14 30 -6 70 -13 88 -16 71 -12 277 -87 371 -135 198 -102 383 -269 447 -403 52 -111 65 -176 63 -307 -3 -127 -24 -212 -79 -305 -58 -98 -57 -87 -18 -172 20 -43 41 -94 47 -114 7 -20 20 -44 30 -53 16 -15 19 -15 33 1 9 10 21 29 28 42 7 13 32 50 57 82 50 64 52 82 17 169 -26 64 -26 226 0 295 45 119 127 201 272 274 181 92 412 118 654 76 35 -6 157 -42 170 -50 17 -10 13 -60 -14 -205 -19 -98 -71 -228 -147 -363 -32 -57 -171 -200 -237 -243 -80 -53 -201 -93 -287 -95 -103 -1 -182 31 -277 112 -31 27 -61 49 -66 49 -13 0 -60 -61 -96 -123 -34 -60 -73 -166 -82 -223 -6 -43 -25 -71 -42 -60 -5 3 -12 43 -15 89 -11 144 -80 355 -121 370 -8 3 -34 -9 -58 -27 -123 -94 -241 -136 -388 -137 -127 -2 -196 14 -308 67 -71 35 -109 61 -161 112 -167 165 -296 434 -336 702 -25 160 -15 505 16 586 6 18 18 24 56 27 47 4 240 -1 298 -8z"/> <path d="M258 1904 c-25 -28 -30 -62 -35 -249 -6 -201 11 -345 59 -494 104 -326 290 -558 510 -637 106 -38 273 -35 382 7 60 22 197 113 215 141 11 17 8 26 -16 61 -69 100 -225 232 -370 314 -61 34 -82 63 -45 63 24 0 164 -84 257 -154 40 -30 105 -91 145 -135 71 -78 74 -80 93 -63 27 24 75 122 92 189 20 77 19 230 -1 301 -37 128 -106 229 -236 342 -230 200 -531 310 -898 326 -124 6 -136 5 -152 -12z m358 -38 c321 -57 541 -163 729 -351 137 -137 188 -249 189 -415 1 -105 -22 -198 -70 -284 l-26 -46 -27 37 c-45 62 -170 174 -261 234 -154 102 -205 119 -234 78 -21 -31 -3 -61 52 -88 85 -41 216 -134 282 -201 74 -74 136 -150 122 -150 -5 0 -45 -24 -90 -54 -95 -64 -166 -87 -282 -94 -103 -5 -183 12 -287 63 -125 61 -276 248 -356 440 -84 203 -112 367 -104 625 3 102 9 196 13 209 l7 24 132 -7 c72 -3 167 -13 211 -20z"/> <path d="M2275 1340 c-225 -36 -411 -153 -483 -307 -24 -52 -27 -70 -27 -163 0 -113 20 -180 54 -180 9 0 35 17 57 38 51 46 83 72 88 72 1 0 41 22 87 50 46 27 94 50 107 50 41 0 23 -29 -35 -59 -74 -37 -186 -116 -241 -170 -50 -48 -48 -55 25 -128 110 -111 281 -122 442 -30 70 39 192 155 243 230 91 134 173 341 184 467 l7 68 -31 16 c-79 41 -345 66 -477 46z m260 -30 c50 -5 120 -17 156 -26 l65 -17 -8 -60 c-27 -197 -141 -429 -275 -559 -198 -192 -416 -220 -558 -71 l-46 48 38 33 c50 44 164 121 232 158 63 34 76 51 67 87 -14 55 -71 41 -221 -57 -47 -31 -104 -73 -128 -96 l-44 -40 -18 75 c-16 63 -17 83 -7 135 25 137 105 239 241 308 151 77 308 103 506 82z"/> </g> </svg> 